<mxfile host="app.diagrams.net" modified="2024-02-04T22:22:09.507Z" agent="Mozilla/5.0 (Windows NT 10.0; Win64; x64) AppleWebKit/537.36 (KHTML, like Gecko) Chrome/121.0.0.0 Safari/537.36 OpenWave/94.4.4466.39" version="23.1.1" etag="5TU0fsOqSh9BfNYC9HO6" type="github">
  <diagram name="Page-1" id="VhLgJXipXO8J8XmTNoqy">
    <mxGraphModel>
      <root>
        <mxCell id="0" />
        <mxCell id="1" parent="0" />
      </root>
    </mxGraphModel>
  </diagram>
</mxfile>
